<svg xmlns="http://www.w3.org/2000/svg" width="1440" height="620" viewBox="0 0 1440 620" role="img" aria-labelledby="title desc">
<title id="title">Training control and adapter serving</title>
<desc id="desc">Implemented management workflow · observed direct-loading path. An implemented merge/apply control is shown separately from the observed direct adapter registration.</desc>
<defs><marker id="arrow" markerWidth="8" markerHeight="8" refX="7" refY="4" orient="auto"><path d="M0 0L8 4L0 8" fill="#53808d"/></marker></defs>
<rect width="1440" height="620" rx="18" fill="#f3f6fa"/>
<g font-family="Arial, sans-serif">
<text x="40" y="52" font-size="32" font-weight="700" fill="#142b43">Training control and adapter serving</text>
<text x="40" y="87" font-size="19" fill="#536477">Implemented management workflow · observed direct-loading path</text>
<text x="40" y="131" font-size="17" font-weight="700" fill="#18796e">CONTROL AND TRAINING</text>
<g data-node="n0_0"><rect x="40.0" y="153" width="316.0" height="134" rx="10" fill="#fff" stroke="#c8d5df"/>
<rect x="40.0" y="153" width="5" height="134" rx="2" fill="#18796e"/>
<text x="59.0" y="185" font-size="21" font-weight="700" fill="#17314b">Admin training UI</text>
<text x="59.0" y="218" font-size="18" fill="#4a6075">Run history / checkpoints</text>
<text x="59.0" y="242" font-size="18" fill="#4a6075">Authenticated actions</text>
</g>
<path d="M358.0 220 H383.0" stroke="#53808d" stroke-width="2" fill="none" marker-end="url(#arrow)"/>
<g data-node="n0_1"><rect x="388.0" y="153" width="316.0" height="134" rx="10" fill="#fff" stroke="#c8d5df"/>
<rect x="388.0" y="153" width="5" height="134" rx="2" fill="#18796e"/>
<text x="407.0" y="185" font-size="21" font-weight="700" fill="#17314b">API request flags</text>
<text x="407.0" y="218" font-size="18" fill="#4a6075">Training / apply request</text>
<text x="407.0" y="242" font-size="18" fill="#4a6075">No browser Docker access</text>
</g>
<path d="M706.0 220 H731.0" stroke="#53808d" stroke-width="2" fill="none" marker-end="url(#arrow)"/>
<g data-node="n0_2"><rect x="736.0" y="153" width="316.0" height="134" rx="10" fill="#fff" stroke="#c8d5df"/>
<rect x="736.0" y="153" width="5" height="134" rx="2" fill="#18796e"/>
<text x="755.0" y="185" font-size="21" font-weight="700" fill="#17314b">Host watcher</text>
<text x="755.0" y="218" font-size="18" fill="#4a6075">Train / merge-export action</text>
<text x="755.0" y="242" font-size="18" fill="#4a6075">Logs and result status</text>
</g>
<path d="M1054.0 220 H1079.0" stroke="#53808d" stroke-width="2" fill="none" marker-end="url(#arrow)"/>
<g data-node="n0_3"><rect x="1084.0" y="153" width="316.0" height="134" rx="10" fill="#fff" stroke="#c8d5df"/>
<rect x="1084.0" y="153" width="5" height="134" rx="2" fill="#18796e"/>
<text x="1103.0" y="185" font-size="21" font-weight="700" fill="#17314b">Training artifacts</text>
<text x="1103.0" y="218" font-size="18" fill="#4a6075">Args / state / adapter</text>
<text x="1103.0" y="242" font-size="18" fill="#4a6075">Loss / token accuracy</text>
</g>
<text x="40" y="346" font-size="17" font-weight="700" fill="#375c98">OBSERVED SERVING PATH</text>
<g data-node="n1_0"><rect x="40.0" y="368" width="316.0" height="134" rx="10" fill="#fff" stroke="#c8d5df"/>
<rect x="40.0" y="368" width="5" height="134" rx="2" fill="#375c98"/>
<text x="59.0" y="400" font-size="21" font-weight="700" fill="#17314b">Completed adapter</text>
<text x="59.0" y="433" font-size="18" fill="#4a6075">Checkpoint-531</text>
<text x="59.0" y="457" font-size="18" fill="#4a6075">531 steps / epoch 3</text>
</g>
<path d="M358.0 435 H383.0" stroke="#53808d" stroke-width="2" fill="none" marker-end="url(#arrow)"/>
<g data-node="n1_1"><rect x="388.0" y="368" width="316.0" height="134" rx="10" fill="#fff" stroke="#c8d5df"/>
<rect x="388.0" y="368" width="5" height="134" rx="2" fill="#375c98"/>
<text x="407.0" y="400" font-size="21" font-weight="700" fill="#17314b">Direct adapter loading</text>
<text x="407.0" y="433" font-size="18" fill="#4a6075">Configured base + adapter</text>
<text x="407.0" y="457" font-size="18" fill="#4a6075">Separate from merge/apply</text>
</g>
<path d="M706.0 435 H731.0" stroke="#53808d" stroke-width="2" fill="none" marker-end="url(#arrow)"/>
<g data-node="n1_2"><rect x="736.0" y="368" width="316.0" height="134" rx="10" fill="#fff" stroke="#c8d5df"/>
<rect x="736.0" y="368" width="5" height="134" rx="2" fill="#375c98"/>
<text x="755.0" y="400" font-size="21" font-weight="700" fill="#17314b">vLLM model service</text>
<text x="755.0" y="433" font-size="18" fill="#4a6075">Tensor parallel 4</text>
<text x="755.0" y="457" font-size="18" fill="#4a6075">LoRA rank 16</text>
</g>
<path d="M1054.0 435 H1079.0" stroke="#53808d" stroke-width="2" fill="none" marker-end="url(#arrow)"/>
<g data-node="n1_3"><rect x="1084.0" y="368" width="316.0" height="134" rx="10" fill="#fff" stroke="#c8d5df"/>
<rect x="1084.0" y="368" width="5" height="134" rx="2" fill="#375c98"/>
<text x="1103.0" y="400" font-size="21" font-weight="700" fill="#17314b">Model observation</text>
<text x="1103.0" y="433" font-size="18" fill="#4a6075">Base / adapter relationship</text>
<text x="1103.0" y="457" font-size="18" fill="#4a6075">Admin status / model list</text>
</g>
<text x="40" y="574" font-size="18" fill="#536477">An implemented merge/apply control is shown separately from the observed direct adapter registration.</text>
</g>
</svg>
